<svg xmlns="http://www.w3.org/2000/svg" xmlns:xlink="http://www.w3.org/1999/xlink" contentStyleType="text/css" data-diagram-type="DESCRIPTION" height="757px" preserveAspectRatio="none" style="width:499px;height:757px;background:#FFFFFF;" version="1.1" viewBox="0 0 499 757" width="499px" zoomAndPan="magnify"><defs/><g><g class="title" data-source-line="1"><text fill="#000000" font-family="sans-serif" font-size="14" font-weight="bold" lengthAdjust="spacing" textLength="354.5869" x="68.7927" y="22.9951">Claims Enterprise (Azure) - Mini Architecture</text></g><!--entity U--><g class="entity" data-qualified-name="U" data-source-line="3" id="ent0002"><ellipse cx="206.4686" cy="51.2969" fill="#F1F1F1" rx="8" ry="8" style="stroke:#181818;stroke-width:0.5;"/><path d="M206.4686,59.2969 L206.4686,86.2969 M193.4686,67.2969 L219.4686,67.2969 M206.4686,86.2969 L193.4686,101.2969 M206.4686,86.2969 L219.4686,101.2969" fill="none" style="stroke:#181818;stroke-width:0.5;"/><text fill="#000000" font-family="sans-serif" font-size="14" lengthAdjust="spacing" textLength="97.6172" x="157.66" y="115.792">Usuario/Canal</text></g><!--entity APIM--><g class="entity" data-qualified-name="APIM" data-source-line="5" id="ent0003"><rect fill="#F1F1F1" height="62.5938" rx="2.5" ry="2.5" style="stroke:#181818;stroke-width:0.5;" width="203.4404" x="104.75" y="180.0969"/><rect fill="#F1F1F1" height="10" style="stroke:#181818;stroke-width:0.5;" width="15" x="288.1904" y="185.0969"/><rect fill="#F1F1F1" height="2" style="stroke:#181818;stroke-width:0.5;" width="4" x="286.1904" y="187.0969"/><rect fill="#F1F1F1" height="2" style="stroke:#181818;stroke-width:0.5;" width="4" x="286.1904" y="191.0969"/><text fill="#000000" font-family="sans-serif" font-size="14" lengthAdjust="spacing" textLength="163.4404" x="119.75" y="213.092">Azure API Management</text><text fill="#000000" font-family="sans-serif" font-size="14" lengthAdjust="spacing" textLength="45.1514" x="119.75" y="229.3889">(APIM)</text></g><!--entity API--><g class="entity" data-qualified-name="API" data-source-line="6" id="ent0004"><rect fill="#F1F1F1" height="62.5938" rx="2.5" ry="2.5" style="stroke:#181818;stroke-width:0.5;" width="134.4658" x="139.24" y="303.6869"/><rect fill="#F1F1F1" height="10" style="stroke:#181818;stroke-width:0.5;" width="15" x="253.7058" y="308.6869"/><rect fill="#F1F1F1" height="2" style="stroke:#181818;stroke-width:0.5;" width="4" x="251.7058" y="310.6869"/><rect fill="#F1F1F1" height="2" style="stroke:#181818;stroke-width:0.5;" width="4" x="251.7058" y="314.6869"/><text fill="#000000" font-family="sans-serif" font-size="14" lengthAdjust="spacing" textLength="73.8691" x="154.24" y="336.682">Claims.Api</text><text fill="#000000" font-family="sans-serif" font-size="14" lengthAdjust="spacing" textLength="94.4658" x="154.24" y="352.9789">(App Service)</text></g><!--entity SBQ--><g class="entity" data-qualified-name="SBQ" data-source-line="7" id="ent0005"><path d="M135.27,427.2869 L277.6753,427.2869 C282.6753,427.2869 282.6753,448.5838 282.6753,448.5838 C282.6753,448.5838 282.6753,469.8806 277.6753,469.8806 L135.27,469.8806 C130.27,469.8806 130.27,448.5838 130.27,448.5838 C130.27,448.5838 130.27,427.2869 135.27,427.2869" fill="#F1F1F1" style="stroke:#181818;stroke-width:0.5;"/><path d="M277.6753,427.2869 C272.6753,427.2869 272.6753,448.5838 272.6753,448.5838 C272.6753,469.8806 277.6753,469.8806 277.6753,469.8806" fill="none" style="stroke:#181818;stroke-width:0.5;"/><text fill="#000000" font-family="sans-serif" font-size="14" lengthAdjust="spacing" textLength="132.4053" x="135.27" y="445.282">Service Bus Queue</text><text fill="#000000" font-family="sans-serif" font-size="14" lengthAdjust="spacing" textLength="126.6084" x="135.27" y="461.5789">claims.commands</text></g><!--entity SQL--><g class="entity" data-qualified-name="SQL" data-source-line="8" id="ent0006"><path d="M180.31,680.4769 C180.31,670.4769 226.4721,670.4769 226.4721,670.4769 C226.4721,670.4769 272.6342,670.4769 272.6342,680.4769 L272.6342,722.0706 C272.6342,732.0706 226.4721,732.0706 226.4721,732.0706 C226.4721,732.0706 180.31,732.0706 180.31,722.0706 L180.31,680.4769" fill="#F1F1F1" style="stroke:#181818;stroke-width:0.5;"/><path d="M180.31,680.4769 C180.31,690.4769 226.4721,690.4769 226.4721,690.4769 C226.4721,690.4769 272.6342,690.4769 272.6342,680.4769" fill="none" style="stroke:#181818;stroke-width:0.5;"/><text fill="#000000" font-family="sans-serif" font-size="14" lengthAdjust="spacing" textLength="72.3242" x="190.31" y="707.472">Azure SQL</text><text fill="#000000" font-family="sans-serif" font-size="14" lengthAdjust="spacing" textLength="66.8008" x="190.31" y="723.7689">Database</text></g><!--entity FN--><g class="entity" data-qualified-name="FN" data-source-line="9" id="ent0007"><rect fill="#F1F1F1" height="62.5938" rx="2.5" ry="2.5" style="stroke:#181818;stroke-width:0.5;" width="176.4248" x="167.26" y="546.8769"/><rect fill="#F1F1F1" height="10" style="stroke:#181818;stroke-width:0.5;" width="15" x="323.6848" y="551.8769"/><rect fill="#F1F1F1" height="2" style="stroke:#181818;stroke-width:0.5;" width="4" x="321.6848" y="553.8769"/><rect fill="#F1F1F1" height="2" style="stroke:#181818;stroke-width:0.5;" width="4" x="321.6848" y="557.8769"/><text fill="#000000" font-family="sans-serif" font-size="14" lengthAdjust="spacing" textLength="136.4248" x="182.26" y="579.872">Claims.ProcessorFn</text><text fill="#000000" font-family="sans-serif" font-size="14" lengthAdjust="spacing" textLength="123.1494" x="182.26" y="596.1689">(Azure Functions)</text></g><!--entity AI--><g class="entity" data-qualified-name="AI" data-source-line="10" id="ent0008"><rect fill="#F1F1F1" height="46.2969" rx="2.5" ry="2.5" style="stroke:#181818;stroke-width:0.5;" width="177.4023" x="307.77" y="678.1169"/><rect fill="#F1F1F1" height="10" style="stroke:#181818;stroke-width:0.5;" width="15" x="465.1723" y="683.1169"/><rect fill="#F1F1F1" height="2" style="stroke:#181818;stroke-width:0.5;" width="4" x="463.1723" y="685.1169"/><rect fill="#F1F1F1" height="2" style="stroke:#181818;stroke-width:0.5;" width="4" x="463.1723" y="689.1169"/><text fill="#000000" font-family="sans-serif" font-size="14" lengthAdjust="spacing" textLength="137.4023" x="322.77" y="711.112">Application Insights</text></g><!--entity KV--><g class="entity" data-qualified-name="KV" data-source-line="11" id="ent0009"><rect fill="#F1F1F1" height="46.2969" rx="2.5" ry="2.5" style="stroke:#181818;stroke-width:0.5;" width="106.9375" x="7" y="678.1169"/><rect fill="#F1F1F1" height="10" style="stroke:#181818;stroke-width:0.5;" width="15" x="93.9375" y="683.1169"/><rect fill="#F1F1F1" height="2" style="stroke:#181818;stroke-width:0.5;" width="4" x="91.9375" y="685.1169"/><rect fill="#F1F1F1" height="2" style="stroke:#181818;stroke-width:0.5;" width="4" x="91.9375" y="689.1169"/><text fill="#000000" font-family="sans-serif" font-size="14" lengthAdjust="spacing" textLength="66.9375" x="22" y="711.112">Key Vault</text></g><!--entity DLQ--><g class="entity" data-qualified-name="DLQ" data-source-line="12" id="ent0010"><path d="M87.67,565.0269 L127.2696,565.0269 C132.2696,565.0269 132.2696,578.1753 132.2696,578.1753 C132.2696,578.1753 132.2696,591.3238 127.2696,591.3238 L87.67,591.3238 C82.67,591.3238 82.67,578.1753 82.67,578.1753 C82.67,578.1753 82.67,565.0269 87.67,565.0269" fill="#F1F1F1" style="stroke:#181818;stroke-width:0.5;"/><path d="M127.2696,565.0269 C122.2696,565.0269 122.2696,578.1753 122.2696,578.1753 C122.2696,591.3238 127.2696,591.3238 127.2696,591.3238" fill="none" style="stroke:#181818;stroke-width:0.5;"/><text fill="#000000" font-family="sans-serif" font-size="14" lengthAdjust="spacing" textLength="29.5996" x="87.67" y="583.022">DLQ</text></g><!--link U to APIM--><g class="link" data-entity-1="ent0002" data-entity-2="ent0003" data-link-type="dependency" data-source-line="14" id="lnk11"><path d="M206.47,119.4469 C206.47,138.6969 206.47,155.8469 206.47,173.9769" fill="none" id="U-to-APIM" style="stroke:#181818;stroke-width:1;"/><polygon fill="#181818" points="206.47,179.9769,210.47,170.9769,206.47,174.9769,202.47,170.9769,206.47,179.9769" style="stroke:#181818;stroke-width:1;"/></g><!--link APIM to API--><g class="link" data-entity-1="ent0003" data-entity-2="ent0004" data-link-type="dependency" data-source-line="15" id="lnk12"><path d="M206.47,243.0769 C206.47,261.5069 206.47,278.8869 206.47,297.3169" fill="none" id="APIM-to-API" style="stroke:#181818;stroke-width:1;"/><polygon fill="#181818" points="206.47,303.3169,210.47,294.3169,206.47,298.3169,202.47,294.3169,206.47,303.3169" style="stroke:#181818;stroke-width:1;"/></g><!--link API to SBQ--><g class="link" data-entity-1="ent0004" data-entity-2="ent0005" data-link-type="dependency" data-source-line="16" id="lnk13"><path d="M206.47,366.7769 C206.47,386.0069 206.47,404.2269 206.47,421.1069" fill="none" id="API-to-SBQ" style="stroke:#181818;stroke-width:1;"/><polygon fill="#181818" points="206.47,427.1069,210.47,418.1069,206.47,422.1069,202.47,418.1069,206.47,427.1069" style="stroke:#181818;stroke-width:1;"/></g><!--link SBQ to FN--><g class="link" data-entity-1="ent0005" data-entity-2="ent0007" data-link-type="dependency" data-source-line="17" id="lnk14"><path d="M214.45,470.3669 C222.37,490.9869 232.4506,517.2251 241.4906,540.7851" fill="none" id="SBQ-to-FN" style="stroke:#181818;stroke-width:1;"/><polygon fill="#181818" points="243.64,546.3869,244.1504,536.5513,241.8488,541.7187,236.6814,539.4171,243.64,546.3869" style="stroke:#181818;stroke-width:1;"/></g><!--link FN to SQL--><g class="link" data-entity-1="ent0007" data-entity-2="ent0006" data-link-type="dependency" data-source-line="18" id="lnk15"><path d="M248.15,609.7369 C243.72,628.2269 239.487,645.8918 235.077,664.3118" fill="none" id="FN-to-SQL" style="stroke:#181818;stroke-width:1;"/><polygon fill="#181818" points="233.68,670.1469,239.6656,662.3256,234.8442,665.2843,231.8854,660.4629,233.68,670.1469" style="stroke:#181818;stroke-width:1;"/></g><!--link API to AI--><g class="link" data-entity-1="ent0004" data-entity-2="ent0008" data-link-type="dependency" data-source-line="20" id="lnk16"><path d="M243.22,366.4869 C261.87,383.1769 283.99,404.9569 300.47,427.2869 C335.9,475.2969 341.12,490.7869 361.47,546.8769 C377.82,591.9469 387.2424,641.3838 392.1524,671.7538" fill="none" id="API-to-AI" style="stroke:#181818;stroke-width:1;"/><polygon fill="#181818" points="393.11,677.6769,395.6223,668.1538,392.312,672.741,387.7249,669.4306,393.11,677.6769" style="stroke:#181818;stroke-width:1;"/></g><!--link FN to AI--><g class="link" data-entity-1="ent0007" data-entity-2="ent0008" data-link-type="dependency" data-source-line="21" id="lnk17"><path d="M291.05,609.7369 C315.69,630.8969 343.3882,654.6778 365.6982,673.8378" fill="none" id="FN-to-AI" style="stroke:#181818;stroke-width:1;"/><polygon fill="#181818" points="370.25,677.7469,366.0284,668.8487,366.4568,674.4893,360.8162,674.9177,370.25,677.7469" style="stroke:#181818;stroke-width:1;"/></g><!--link API to KV--><g class="link" data-entity-1="ent0004" data-entity-2="ent0009" data-link-type="dependency" data-source-line="23" id="lnk18"><path d="M167.87,366.6669 C149.19,383.0769 127.59,404.5569 112.47,427.2869 C80.83,474.8269 77.01,490.9469 65.47,546.8769 C56.04,592.5469 56.8425,641.4658 58.4925,671.6458" fill="none" id="API-to-KV" style="stroke:#181818;stroke-width:1;"/><polygon fill="#181818" points="58.82,677.6369,62.3227,668.4319,58.547,672.6443,54.3347,668.8687,58.82,677.6369" style="stroke:#181818;stroke-width:1;"/></g><!--link FN to KV--><g class="link" data-entity-1="ent0007" data-entity-2="ent0009" data-link-type="dependency" data-source-line="24" id="lnk19"><path d="M206.01,609.8869 C171.93,631.0469 132.5175,655.5321 101.7375,674.6421" fill="none" id="FN-to-KV" style="stroke:#181818;stroke-width:1;"/><polygon fill="#181818" points="96.64,677.8069,106.396,676.458,100.8879,675.1695,102.1763,669.6614,96.64,677.8069" style="stroke:#181818;stroke-width:1;"/></g><!--link SBQ to DLQ--><g class="link" data-entity-1="ent0005" data-entity-2="ent0010" data-link-type="dependency" data-source-line="26" id="lnk20"><path d="M168.6,470.1969 C156.69,478.1769 144.35,488.2269 135.47,499.8769 C120.42,519.6369 114.0736,542.3648 110.7936,558.6648" fill="none" id="SBQ-to-DLQ" style="stroke:#181818;stroke-width:1;"/><polygon fill="#181818" points="109.61,564.5469,115.3068,556.5128,110.5964,559.6451,107.4641,554.9346,109.61,564.5469" style="stroke:#181818;stroke-width:1;"/><text fill="#000000" font-family="sans-serif" font-size="13" lengthAdjust="spacing" textLength="81.377" x="136.47" y="512.9438">poison msgs</text></g><?plantuml-src RP3BRi8m44Nt_efHLh2WxBke5A2H40yH8LYnSSq8HafiruzAxTTtR8U8IbqakJw-CtCdWKA7iEmazHxUTK1d7Nc4IVqJ7KvX1ZlI1BLJTmge0aCXf0h6GNNoKJeoywNKigj0UZW9eKnlZKOTeCeje3wiOSUE6_PCBth2O3VDzgIU2qgCbzfIibaBHtHVf71qYy-84Q4QE2oYXpQXYrQbbhlrKbzzhZWkMd6LGNv8tcY8Ssot5xqQO76rstz279nHwBrnZKvXScqJjGfaj2-1clsVRQtjICbq3sljwNOF9KMzVhPjy1lECdOXtstEZvLMspOJ_WfnWjdihVoUz7gSqY7hj1W_MNEAPbyeBp9QUEg0MOsKvmsKrTY2Py8hM4EUi_V-vdy1?></g></svg>
