<svg xmlns="http://www.w3.org/2000/svg" xmlns:xlink="http://www.w3.org/1999/xlink" contentStyleType="text/css" data-diagram-type="DESCRIPTION" height="495px" preserveAspectRatio="none" style="width:752px;height:495px;background:#FFFFFF;" version="1.1" viewBox="0 0 752 495" width="752px" zoomAndPan="magnify"><defs/><g><g class="title" data-source-line="1"><text fill="#000000" font-family="sans-serif" font-size="14" font-weight="bold" lengthAdjust="spacing" textLength="312.1836" x="216.7524" y="22.9951">Fraud Scoring (AKS) - Mini Architecture</text></g><!--cluster AKS--><g class="cluster" data-qualified-name="AKS" data-source-line="6" id="ent0004"><polygon fill="none" points="48.72,271.6869,58.72,261.6869,608.72,261.6869,608.72,353.9869,598.72,363.9869,48.72,363.9869,48.72,271.6869" style="stroke:#181818;stroke-width:1;"/><line style="stroke:#181818;stroke-width:1;" x1="598.72" x2="608.72" y1="271.6869" y2="261.6869"/><line style="stroke:#181818;stroke-width:1;" x1="48.72" x2="598.72" y1="271.6869" y2="271.6869"/><line style="stroke:#181818;stroke-width:1;" x1="598.72" x2="598.72" y1="271.6869" y2="363.9869"/><text fill="#000000" font-family="sans-serif" font-size="14" font-weight="bold" lengthAdjust="spacing" textLength="93.1055" x="278.1673" y="287.682">AKS Cluster</text></g><!--entity ING--><g class="entity" data-qualified-name="AKS.ING" data-source-line="7" id="ent0005"><rect fill="#F1F1F1" height="46.2969" rx="2.5" ry="2.5" style="stroke:#181818;stroke-width:0.5;" width="160.8047" x="64.32" y="301.6869"/><rect fill="#F1F1F1" height="10" style="stroke:#181818;stroke-width:0.5;" width="15" x="205.1247" y="306.6869"/><rect fill="#F1F1F1" height="2" style="stroke:#181818;stroke-width:0.5;" width="4" x="203.1247" y="308.6869"/><rect fill="#F1F1F1" height="2" style="stroke:#181818;stroke-width:0.5;" width="4" x="203.1247" y="312.6869"/><text fill="#000000" font-family="sans-serif" font-size="14" lengthAdjust="spacing" textLength="120.8047" x="79.32" y="334.682">Ingestion.Service</text></g><!--entity FEAT--><g class="entity" data-qualified-name="AKS.FEAT" data-source-line="8" id="ent0006"><rect fill="#F1F1F1" height="46.2969" rx="2.5" ry="2.5" style="stroke:#181818;stroke-width:0.5;" width="150.168" x="259.64" y="301.6869"/><rect fill="#F1F1F1" height="10" style="stroke:#181818;stroke-width:0.5;" width="15" x="389.808" y="306.6869"/><rect fill="#F1F1F1" height="2" style="stroke:#181818;stroke-width:0.5;" width="4" x="387.808" y="308.6869"/><rect fill="#F1F1F1" height="2" style="stroke:#181818;stroke-width:0.5;" width="4" x="387.808" y="312.6869"/><text fill="#000000" font-family="sans-serif" font-size="14" lengthAdjust="spacing" textLength="110.168" x="274.64" y="334.682">Feature.Service</text></g><!--entity SCORE--><g class="entity" data-qualified-name="AKS.SCORE" data-source-line="9" id="ent0007"><rect fill="#F1F1F1" height="46.2969" rx="2.5" ry="2.5" style="stroke:#181818;stroke-width:0.5;" width="148.7461" x="444.35" y="301.6869"/><rect fill="#F1F1F1" height="10" style="stroke:#181818;stroke-width:0.5;" width="15" x="573.0961" y="306.6869"/><rect fill="#F1F1F1" height="2" style="stroke:#181818;stroke-width:0.5;" width="4" x="571.0961" y="308.6869"/><rect fill="#F1F1F1" height="2" style="stroke:#181818;stroke-width:0.5;" width="4" x="571.0961" y="312.6869"/><text fill="#000000" font-family="sans-serif" font-size="14" lengthAdjust="spacing" textLength="108.7461" x="459.35" y="334.682">Scoring.Service</text></g><!--entity U--><g class="entity" data-qualified-name="U" data-source-line="3" id="ent0002"><ellipse cx="108.7246" cy="51.2969" fill="#F1F1F1" rx="8" ry="8" style="stroke:#181818;stroke-width:0.5;"/><path d="M108.7246,59.2969 L108.7246,86.2969 M95.7246,67.2969 L121.7246,67.2969 M108.7246,86.2969 L95.7246,101.2969 M108.7246,86.2969 L121.7246,101.2969" fill="none" style="stroke:#181818;stroke-width:0.5;"/><text fill="#000000" font-family="sans-serif" font-size="14" lengthAdjust="spacing" textLength="128.5293" x="44.46" y="115.792">Consumidor/Canal</text></g><!--entity APIM--><g class="entity" data-qualified-name="APIM" data-source-line="5" id="ent0003"><rect fill="#F1F1F1" height="62.5938" rx="2.5" ry="2.5" style="stroke:#181818;stroke-width:0.5;" width="203.4404" x="7" y="179.0969"/><rect fill="#F1F1F1" height="10" style="stroke:#181818;stroke-width:0.5;" width="15" x="190.4404" y="184.0969"/><rect fill="#F1F1F1" height="2" style="stroke:#181818;stroke-width:0.5;" width="4" x="188.4404" y="186.0969"/><rect fill="#F1F1F1" height="2" style="stroke:#181818;stroke-width:0.5;" width="4" x="188.4404" y="190.0969"/><text fill="#000000" font-family="sans-serif" font-size="14" lengthAdjust="spacing" textLength="163.4404" x="22" y="212.092">Azure API Management</text><text fill="#000000" font-family="sans-serif" font-size="14" lengthAdjust="spacing" textLength="45.1514" x="22" y="228.3889">(APIM)</text></g><!--entity EH1--><g class="entity" data-qualified-name="EH1" data-source-line="12" id="ent0008"><path d="M250.1,189.0969 L375.3334,189.0969 C380.3334,189.0969 380.3334,210.3937 380.3334,210.3937 C380.3334,210.3937 380.3334,231.6906 375.3334,231.6906 L250.1,231.6906 C245.1,231.6906 245.1,210.3937 245.1,210.3937 C245.1,210.3937 245.1,189.0969 250.1,189.0969" fill="#F1F1F1" style="stroke:#181818;stroke-width:0.5;"/><path d="M375.3334,189.0969 C370.3334,189.0969 370.3334,210.3937 370.3334,210.3937 C370.3334,231.6906 375.3334,231.6906 375.3334,231.6906" fill="none" style="stroke:#181818;stroke-width:0.5;"/><text fill="#000000" font-family="sans-serif" font-size="14" lengthAdjust="spacing" textLength="80.1377" x="250.1" y="207.092">Event Hubs</text><text fill="#000000" font-family="sans-serif" font-size="14" lengthAdjust="spacing" textLength="115.2334" x="250.1" y="223.3889">(ClaimReported)</text></g><!--entity EH2--><g class="entity" data-qualified-name="EH2" data-source-line="13" id="ent0009"><path d="M420.41,189.0969 L617.0243,189.0969 C622.0243,189.0969 622.0243,210.3937 622.0243,210.3937 C622.0243,210.3937 622.0243,231.6906 617.0243,231.6906 L420.41,231.6906 C415.41,231.6906 415.41,210.3937 415.41,210.3937 C415.41,210.3937 415.41,189.0969 420.41,189.0969" fill="#F1F1F1" style="stroke:#181818;stroke-width:0.5;"/><path d="M617.0243,189.0969 C612.0243,189.0969 612.0243,210.3937 612.0243,210.3937 C612.0243,231.6906 617.0243,231.6906 617.0243,231.6906" fill="none" style="stroke:#181818;stroke-width:0.5;"/><text fill="#000000" font-family="sans-serif" font-size="14" lengthAdjust="spacing" textLength="80.1377" x="420.41" y="207.092">Event Hubs</text><text fill="#000000" font-family="sans-serif" font-size="14" lengthAdjust="spacing" textLength="186.6143" x="420.41" y="223.3889">(FraudFeaturesCalculated)</text></g><!--entity PG--><g class="entity" data-qualified-name="PG" data-source-line="14" id="ent0010"><path d="M354.16,418.4869 C354.16,408.4869 431.7196,408.4869 431.7196,408.4869 C431.7196,408.4869 509.2791,408.4869 509.2791,418.4869 L509.2791,460.0806 C509.2791,470.0806 431.7196,470.0806 431.7196,470.0806 C431.7196,470.0806 354.16,470.0806 354.16,460.0806 L354.16,418.4869" fill="#F1F1F1" style="stroke:#181818;stroke-width:0.5;"/><path d="M354.16,418.4869 C354.16,428.4869 431.7196,428.4869 431.7196,428.4869 C431.7196,428.4869 509.2791,428.4869 509.2791,418.4869" fill="none" style="stroke:#181818;stroke-width:0.5;"/><text fill="#000000" font-family="sans-serif" font-size="14" lengthAdjust="spacing" textLength="135.1191" x="364.16" y="445.482">Azure Database for</text><text fill="#000000" font-family="sans-serif" font-size="14" lengthAdjust="spacing" textLength="80.7529" x="364.16" y="461.7789">PostgreSQL</text></g><!--entity OBS--><g class="entity" data-qualified-name="OBS" data-source-line="15" id="ent0011"><rect fill="#F1F1F1" height="62.5938" rx="2.5" ry="2.5" style="stroke:#181818;stroke-width:0.5;" width="177.4023" x="142.02" y="407.9869"/><rect fill="#F1F1F1" height="10" style="stroke:#181818;stroke-width:0.5;" width="15" x="299.4223" y="412.9869"/><rect fill="#F1F1F1" height="2" style="stroke:#181818;stroke-width:0.5;" width="4" x="297.4223" y="414.9869"/><rect fill="#F1F1F1" height="2" style="stroke:#181818;stroke-width:0.5;" width="4" x="297.4223" y="418.9869"/><text fill="#000000" font-family="sans-serif" font-size="14" lengthAdjust="spacing" textLength="125.0225" x="157.02" y="440.982">OpenTelemetry +</text><text fill="#000000" font-family="sans-serif" font-size="14" lengthAdjust="spacing" textLength="137.4023" x="157.02" y="457.2789">Application Insights</text></g><!--entity OUT--><g class="entity" data-qualified-name="OUT" data-source-line="16" id="ent0012"><rect fill="#F1F1F1" height="62.5938" rx="2.5" ry="2.5" style="stroke:#181818;stroke-width:0.5;" width="193.9385" x="544.75" y="407.9869"/><rect fill="#F1F1F1" height="10" style="stroke:#181818;stroke-width:0.5;" width="15" x="718.6885" y="412.9869"/><rect fill="#F1F1F1" height="2" style="stroke:#181818;stroke-width:0.5;" width="4" x="716.6885" y="414.9869"/><rect fill="#F1F1F1" height="2" style="stroke:#181818;stroke-width:0.5;" width="4" x="716.6885" y="418.9869"/><text fill="#000000" font-family="sans-serif" font-size="14" lengthAdjust="spacing" textLength="153.9385" x="559.75" y="440.982">FraudScoreCalculated</text><text fill="#000000" font-family="sans-serif" font-size="14" lengthAdjust="spacing" textLength="101.4248" x="559.75" y="457.2789">(event output)</text></g><!--link U to APIM--><g class="link" data-entity-1="ent0002" data-entity-2="ent0003" data-link-type="dependency" data-source-line="18" id="lnk13"><path d="M108.72,119.4969 C108.72,138.4369 108.72,155.1169 108.72,172.9569" fill="none" id="U-to-APIM" style="stroke:#181818;stroke-width:1;"/><polygon fill="#181818" points="108.72,178.9569,112.72,169.9569,108.72,173.9569,104.72,169.9569,108.72,178.9569" style="stroke:#181818;stroke-width:1;"/></g><!--link APIM to ING--><g class="link" data-entity-1="ent0003" data-entity-2="ent0005" data-link-type="dependency" data-source-line="19" id="lnk14"><path d="M118.56,242.1169 C124.55,260.8469 130.2504,278.6426 135.6904,295.6326" fill="none" id="APIM-to-ING" style="stroke:#181818;stroke-width:1;"/><polygon fill="#181818" points="137.52,301.3469,138.585,291.5558,135.9953,296.585,130.9661,293.9953,137.52,301.3469" style="stroke:#181818;stroke-width:1;"/></g><!--link ING to EH1--><g class="link" data-entity-1="ent0005" data-entity-2="ent0008" data-link-type="dependency" data-source-line="21" id="lnk15"><path d="M174.39,301.3369 C193.35,287.2169 218.63,268.8769 241.72,253.6869 C252.87,246.3569 260.1282,241.8256 271.4182,235.1356" fill="none" id="ING-to-EH1" style="stroke:#181818;stroke-width:1;"/><polygon fill="#181818" points="276.58,232.0769,266.7981,233.2237,272.2785,234.6258,270.8764,240.1061,276.58,232.0769" style="stroke:#181818;stroke-width:1;"/></g><!--link EH1 to FEAT--><g class="link" data-entity-1="ent0008" data-entity-2="ent0006" data-link-type="dependency" data-source-line="22" id="lnk16"><path d="M316.76,232.0169 C320.6,251.6669 325.2302,275.2981 329.1802,295.5281" fill="none" id="EH1-to-FEAT" style="stroke:#181818;stroke-width:1;"/><polygon fill="#181818" points="330.33,301.4169,332.5311,291.8171,329.3718,296.5095,324.6794,293.3502,330.33,301.4169" style="stroke:#181818;stroke-width:1;"/></g><!--link FEAT to PG--><g class="link" data-entity-1="ent0006" data-entity-2="ent0010" data-link-type="dependency" data-source-line="23" id="lnk17"><path d="M354.12,348.3169 C368.93,365.4969 385.5814,384.7933 401.8214,403.6233" fill="none" id="FEAT-to-PG" style="stroke:#181818;stroke-width:1;"/><polygon fill="#181818" points="405.74,408.1669,402.8911,398.7391,402.4745,404.3805,396.833,403.9639,405.74,408.1669" style="stroke:#181818;stroke-width:1;"/></g><!--link FEAT to EH2--><g class="link" data-entity-1="ent0006" data-entity-2="ent0009" data-link-type="dependency" data-source-line="24" id="lnk18"><path d="M360.98,301.3169 C378.81,286.6769 403.31,267.7569 426.72,253.6869 C439.83,245.8069 449.1952,240.896 463.0552,234.546" fill="none" id="FEAT-to-EH2" style="stroke:#181818;stroke-width:1;"/><polygon fill="#181818" points="468.51,232.0469,458.6618,232.159,463.9644,234.1295,461.9939,239.4321,468.51,232.0469" style="stroke:#181818;stroke-width:1;"/></g><!--link EH2 to SCORE--><g class="link" data-entity-1="ent0009" data-entity-2="ent0007" data-link-type="dependency" data-source-line="25" id="lnk19"><path d="M518.72,232.0169 C518.72,251.6669 518.72,275.1869 518.72,295.4169" fill="none" id="EH2-to-SCORE" style="stroke:#181818;stroke-width:1;"/><polygon fill="#181818" points="518.72,301.4169,522.72,292.4169,518.72,296.4169,514.72,292.4169,518.72,301.4169" style="stroke:#181818;stroke-width:1;"/></g><!--link SCORE to PG--><g class="link" data-entity-1="ent0007" data-entity-2="ent0010" data-link-type="dependency" data-source-line="26" id="lnk20"><path d="M501.32,348.3169 C488.03,365.4969 473.2618,384.5915 458.6918,403.4215" fill="none" id="SCORE-to-PG" style="stroke:#181818;stroke-width:1;"/><polygon fill="#181818" points="455.02,408.1669,463.6912,403.4967,458.0798,404.2124,457.3641,398.601,455.02,408.1669" style="stroke:#181818;stroke-width:1;"/></g><!--link SCORE to OUT--><g class="link" data-entity-1="ent0007" data-entity-2="ent0012" data-link-type="dependency" data-source-line="27" id="lnk21"><path d="M543.32,348.3169 C561.96,365.3669 583.3716,384.9385 603.8816,403.6885" fill="none" id="SCORE-to-OUT" style="stroke:#181818;stroke-width:1;"/><polygon fill="#181818" points="608.31,407.7369,604.3663,398.712,604.6197,404.3632,598.9685,404.6166,608.31,407.7369" style="stroke:#181818;stroke-width:1;"/></g><!--link ING to OBS--><g class="link" data-entity-1="ent0005" data-entity-2="ent0011" data-link-type="dependency" data-source-line="29" id="lnk22"><path d="M161.92,348.3169 C174.96,365.3669 189.375,384.2209 203.715,402.9709" fill="none" id="ING-to-OBS" style="stroke:#181818;stroke-width:1;"/><polygon fill="#181818" points="207.36,407.7369,205.0698,398.158,204.3225,403.7653,198.7152,403.018,207.36,407.7369" style="stroke:#181818;stroke-width:1;"/></g><!--link FEAT to OBS--><g class="link" data-entity-1="ent0006" data-entity-2="ent0011" data-link-type="dependency" data-source-line="30" id="lnk23"><path d="M313.92,348.3169 C298.16,365.3669 280.3838,384.5818 263.0438,403.3318" fill="none" id="FEAT-to-OBS" style="stroke:#181818;stroke-width:1;"/><polygon fill="#181818" points="258.97,407.7369,268.0174,403.8452,262.3648,404.066,262.144,398.4135,258.97,407.7369" style="stroke:#181818;stroke-width:1;"/></g><!--link SCORE to OBS--><g class="link" data-entity-1="ent0007" data-entity-2="ent0011" data-link-type="dependency" data-source-line="31" id="lnk24"><path d="M477.64,348.2569 C462.21,356.2569 444.38,364.9969 427.72,371.9869 C392.94,386.5669 359.4355,398.4301 325.2055,409.5701" fill="none" id="SCORE-to-OBS" style="stroke:#181818;stroke-width:1;"/><polygon fill="#181818" points="319.5,411.4269,329.2961,412.4453,324.2545,409.8795,326.8203,404.838,319.5,411.4269" style="stroke:#181818;stroke-width:1;"/></g><?plantuml-src RP5DRi8m48NtFiM85QYYLNk0IY4D454QIc37nZZJO2cnK_yWjLNlNjiXa4XTP3JFUUDyysAugH3cYje2SYOL5oMCerK-WIcikU0GANRY1fcn2WcXp4W5erWARMjUIFKGKq6h4L0DUqAOh1ifK1WOHTzk0A9D2cldAB5sfmSnTWVhIR3xZWXPeFEkSeWhgmsgzfNJFmIWTrqgIjI6It6VepfpXi6OlYs6jZbI3pempPDeDtHT5XsuyZZR9kINa4-BrZ4bPszTsgDsr755URt5HYg3HOkVB1__jOOeBnWwfXMp5UqDFP626dga6hk8NZhz8TL1RAGsfSBy_JKCR1RzJBC6nGuhbwLHNt1t457JL9nHdmkaGlFoP7IOosPvVp10-QtnHkHOCO1BQnfhMi1iloDa3zFfS_j_V0dA9qrS2SBlxfxGXtHz2ShnNdk_h7j2twORQkUxYV3HxcvFVht2Yvvlbly1?></g></svg>
